<?xml version="1.0" encoding="UTF-8" standalone="no"?>
<!-- Created with Inkscape (http://www.inkscape.org/) -->

<svg
   xmlns:dc="http://purl.org/dc/elements/1.1/"
   xmlns:cc="http://creativecommons.org/ns#"
   xmlns:rdf="http://www.w3.org/1999/02/22-rdf-syntax-ns#"
   xmlns:svg="http://www.w3.org/2000/svg"
   xmlns="http://www.w3.org/2000/svg"
   xmlns:sodipodi="http://sodipodi.sourceforge.net/DTD/sodipodi-0.dtd"
   xmlns:inkscape="http://www.inkscape.org/namespaces/inkscape"
   width="793.70996"
   height="599.39087"
   id="svg2"
   version="1.1"
   inkscape:version="0.48.4 r9939"
   inkscape:export-filename="/home/rdom/git/bonej-wiki/tpa2.png"
   inkscape:export-xdpi="90"
   inkscape:export-ydpi="90"
   sodipodi:docname="tpa2.svg">
  <defs
     id="defs4">
    <marker
       inkscape:stockid="Arrow1Lend"
       orient="auto"
       refY="0.0"
       refX="0.0"
       id="Arrow1Lend"
       style="overflow:visible;">
      <path
         id="path4022"
         d="M 0.0,0.0 L 5.0,-5.0 L -12.5,0.0 L 5.0,5.0 L 0.0,0.0 z "
         style="fill-rule:evenodd;stroke:#000000;stroke-width:1.0pt;"
         transform="scale(0.8) rotate(180) translate(12.5,0)" />
    </marker>
    <marker
       inkscape:stockid="Arrow1Mstart"
       orient="auto"
       refY="0.0"
       refX="0.0"
       id="Arrow1Mstart"
       style="overflow:visible">
      <path
         id="path4025"
         d="M 0.0,0.0 L 5.0,-5.0 L -12.5,0.0 L 5.0,5.0 L 0.0,0.0 z "
         style="fill-rule:evenodd;stroke:#000000;stroke-width:1.0pt"
         transform="scale(0.4) translate(10,0)" />
    </marker>
    <marker
       inkscape:stockid="Arrow1Lstart"
       orient="auto"
       refY="0.0"
       refX="0.0"
       id="Arrow1Lstart"
       style="overflow:visible">
      <path
         id="path4019"
         d="M 0.0,0.0 L 5.0,-5.0 L -12.5,0.0 L 5.0,5.0 L 0.0,0.0 z "
         style="fill-rule:evenodd;stroke:#000000;stroke-width:1.0pt"
         transform="scale(0.8) translate(12.5,0)" />
    </marker>
    <marker
       inkscape:stockid="Arrow1Lstart"
       orient="auto"
       refY="0"
       refX="0"
       id="Arrow1Lstart-9"
       style="overflow:visible">
      <path
         inkscape:connector-curvature="0"
         id="path4019-3"
         d="M 0,0 5,-5 -12.5,0 5,5 0,0 z"
         style="fill-rule:evenodd;stroke:#000000;stroke-width:1pt"
         transform="matrix(0.8,0,0,0.8,10,0)" />
    </marker>
    <marker
       inkscape:stockid="Arrow1Lend"
       orient="auto"
       refY="0"
       refX="0"
       id="Arrow1Lend-6"
       style="overflow:visible">
      <path
         inkscape:connector-curvature="0"
         id="path4022-0"
         d="M 0,0 5,-5 -12.5,0 5,5 0,0 z"
         style="fill-rule:evenodd;stroke:#000000;stroke-width:1pt"
         transform="matrix(-0.8,0,0,-0.8,-10,0)" />
    </marker>
  </defs>
  <sodipodi:namedview
     id="base"
     pagecolor="#ffffff"
     bordercolor="#666666"
     borderopacity="1.0"
     inkscape:pageopacity="0.0"
     inkscape:pageshadow="2"
     inkscape:zoom="1.02"
     inkscape:cx="289.14142"
     inkscape:cy="295.20326"
     inkscape:document-units="px"
     inkscape:current-layer="layer1"
     showgrid="false"
     width="1024px"
     inkscape:window-width="1855"
     inkscape:window-height="1176"
     inkscape:window-x="1985"
     inkscape:window-y="24"
     inkscape:window-maximized="1"
     fit-margin-top="-120"
     fit-margin-left="40"
     fit-margin-right="40"
     fit-margin-bottom="0" />
  <metadata
     id="metadata7">
    <rdf:RDF>
      <cc:Work
         rdf:about="">
        <dc:format>image/svg+xml</dc:format>
        <dc:type
           rdf:resource="http://purl.org/dc/dcmitype/StillImage" />
        <dc:title></dc:title>
      </cc:Work>
    </rdf:RDF>
  </metadata>
  <g
     inkscape:label="Layer 1"
     inkscape:groupmode="layer"
     id="layer1"
     transform="translate(-38.398765,-398.74655)">
    <path
       d="m -5.6818173,278.40909 0,768.00001 M 114.31818,278.40909 l 0,768.00001 m 120,-768.00001 0,768.00001 m 120,-768.00001 0,768.00001 m 120,-768.00001 0,768.00001 m 120,-768.00001 0,768.00001 m 120,-768.00001 0,768.00001 m 120,-768.00001 0,768.00001 m 120,-768.00001 0,768.00001 M -5.6818173,278.40909 l 1024.0000173,0 m -1024.0000173,120 1024.0000173,0 m -1024.0000173,120 1024.0000173,0 m -1024.0000173,120 1024.0000173,0 m -1024.0000173,120 1024.0000173,0 m -1024.0000173,120 1024.0000173,0 m -1024.0000173,120 1024.0000173,0"
       style="fill:none;stroke:#000000;stroke-width:1pt;stroke-linecap:butt;stroke-linejoin:miter;stroke-opacity:1"
       id="path3007"
       inkscape:connector-curvature="0" />
    <rect
       style="fill:#c8b7b7;fill-opacity:1;stroke:none"
       id="rect3009"
       width="119"
       height="119"
       x="114.68655"
       y="758.93341"
       ry="0" />
    <rect
       style="fill:#c8b7b7;fill-opacity:1;stroke:none"
       id="rect3009-3"
       width="119"
       height="119"
       x="234.9418"
       y="638.86273"
       ry="0" />
    <rect
       style="fill:#e3e2db;fill-opacity:1;stroke:none"
       id="rect3009-3-6"
       width="119"
       height="119"
       x="354.92108"
       y="638.88354"
       ry="0" />
    <rect
       style="fill:#e3e2db;fill-opacity:1;stroke:none"
       id="rect3009-3-6-7"
       width="119"
       height="119"
       x="474.97827"
       y="638.7135"
       ry="0" />
    <rect
       style="fill:#c8b7b7;fill-opacity:1;stroke:none"
       id="rect3009-3-5"
       width="119"
       height="119"
       x="594.9566"
       y="638.83356"
       ry="0" />
    <rect
       style="fill:#c8b7b7;fill-opacity:1;stroke:none"
       id="rect3009-6"
       width="119"
       height="119"
       x="114.64966"
       y="519.05267"
       ry="0" />
    <rect
       style="fill:#e3e2db;fill-opacity:1;stroke:none"
       id="rect3009-3-6-2"
       width="119"
       height="119"
       x="114.81973"
       y="398.98465"
       ry="0" />
    <rect
       style="fill:#e3e2db;fill-opacity:1;stroke:none"
       id="rect3009-3-6-2-9"
       width="119"
       height="119"
       x="114.81973"
       y="278.74655"
       ry="0" />
    <rect
       style="fill:#e3e2db;fill-opacity:1;stroke:none"
       id="rect3009-3-6-2-1"
       width="119"
       height="119"
       x="114.70047"
       y="879.13745"
       ry="0" />
    <path
       sodipodi:type="arc"
       style="fill:none;stroke:#000000;stroke-width:1.70724188;stroke-miterlimit:4;stroke-opacity:1;stroke-dasharray:10.24345126,10.24345126;stroke-dashoffset:0"
       id="path3186"
       sodipodi:cx="120.09804"
       sodipodi:cy="359.685"
       sodipodi:rx="119.11765"
       sodipodi:ry="179.90196"
       d="m 239.21569,359.685 c 0,99.35711 -53.33079,179.90196 -119.11765,179.90196 -65.786865,0 -119.11765517,-80.54485 -119.11765517,-179.90196 0,-99.35711 53.33079017,-179.90196 119.11765517,-179.90196 65.78686,0 119.11765,80.54485 119.11765,179.90196 z"
       transform="matrix(1.1508238,0,0,1.1925073,78.398765,269.99476)" />
    <text
       xml:space="preserve"
       style="font-size:40px;font-style:normal;font-weight:normal;line-height:125%;letter-spacing:0px;word-spacing:0px;fill:#000000;fill-opacity:1;stroke:none;font-family:Sans"
       x="169.55162"
       y="551.86298"
       id="text3956"
       sodipodi:linespacing="125%"><tspan
         sodipodi:role="line"
         id="tspan3958"
         x="169.55162"
         y="551.86298"
         style="font-size:30px">Vertex</tspan></text>
    <text
       xml:space="preserve"
       style="font-size:40px;font-style:italic;font-weight:normal;line-height:125%;letter-spacing:0px;word-spacing:0px;fill:#000000;fill-opacity:1;stroke:none;font-family:Sans;-inkscape-font-specification:Sans Italic"
       x="386.21826"
       y="704.80408"
       id="text3960"
       sodipodi:linespacing="125%"><tspan
         sodipodi:role="line"
         id="tspan3962"
         x="386.21826"
         y="704.80408"
         style="font-size:26px;font-style:italic;-inkscape-font-specification:Sans Italic">slab</tspan></text>
    <text
       xml:space="preserve"
       style="font-size:40px;font-style:italic;font-weight:normal;line-height:125%;letter-spacing:0px;word-spacing:0px;fill:#000000;fill-opacity:1;stroke:none;font-family:Sans;-inkscape-font-specification:Sans Italic"
       x="139.15945"
       y="823.43152"
       id="text3964"
       sodipodi:linespacing="125%"><tspan
         sodipodi:role="line"
         id="tspan3966"
         x="139.15945"
         y="823.43152"
         style="font-size:26px">point</tspan></text>
    <text
       xml:space="preserve"
       style="font-size:40px;font-style:normal;font-weight:normal;line-height:125%;letter-spacing:0px;word-spacing:0px;fill:#000000;fill-opacity:1;stroke:none;font-family:Sans"
       x="435.23788"
       y="662.64722"
       id="text3970"
       sodipodi:linespacing="125%"><tspan
         sodipodi:role="line"
         id="tspan3972"
         x="435.23788"
         y="662.64722"
         style="font-size:30px">Edge</tspan></text>
    <path
       sodipodi:type="arc"
       style="fill:none;stroke:#000000;stroke-width:4.1185617;stroke-miterlimit:4;stroke-opacity:1;stroke-dasharray:24.71137018,24.71137018;stroke-dashoffset:0"
       id="path3186-2"
       sodipodi:cx="120.09804"
       sodipodi:cy="359.685"
       sodipodi:rx="119.11765"
       sodipodi:ry="179.90196"
       d="m 239.21569,359.685 a 119.11765,179.90196 0 1 1 -238.23530517,0 119.11765,179.90196 0 1 1 238.23530517,0 z"
       transform="matrix(0.50441388,0,0,0.46750021,594.17256,516.08265)" />
    <text
       xml:space="preserve"
       style="font-size:40px;font-style:normal;font-weight:normal;line-height:125%;letter-spacing:0px;word-spacing:0px;fill:#000000;fill-opacity:1;stroke:none;font-family:Sans"
       x="608.19672"
       y="665.72278"
       id="text3956-7"
       sodipodi:linespacing="125%"><tspan
         sodipodi:role="line"
         id="tspan3958-0"
         x="608.19672"
         y="665.72278"
         style="font-size:30px">Vertex</tspan></text>
    <path
       style="fill:none;stroke:#000000;stroke-width:1.03095341;stroke-linecap:butt;stroke-linejoin:miter;stroke-miterlimit:4;stroke-opacity:1;stroke-dasharray:none;marker-start:url(#Arrow1Lstart);marker-end:url(#Arrow1Lend)"
       d="M 267.21422,544.62419 C 434.0931,650.67026 434.0931,650.67026 434.0931,650.67026"
       id="path4013"
       inkscape:connector-curvature="0" />
    <path
       sodipodi:type="arc"
       style="fill:none;stroke:#000000;stroke-width:3.14412093;stroke-miterlimit:4;stroke-opacity:1;stroke-dasharray:3.14412093,18.8647256;stroke-dashoffset:0"
       id="path3186-2-2"
       sodipodi:cx="120.09804"
       sodipodi:cy="359.685"
       sodipodi:rx="119.11765"
       sodipodi:ry="179.90196"
       d="m 239.21569,359.685 a 119.11765,179.90196 0 1 1 -238.23530517,0 119.11765,179.90196 0 1 1 238.23530517,0 z"
       transform="matrix(0.99617507,0,0,0.40618683,355.0346,552.03812)" />
    <path
       style="fill:none;stroke:#000000;stroke-width:1.0325551px;stroke-linecap:butt;stroke-linejoin:miter;stroke-opacity:1;marker-start:url(#Arrow1Lstart-9);marker-end:url(#Arrow1Lend-6)"
       d="m 516.84641,655.002 89.18314,0.97672"
       id="path4881"
       inkscape:connector-curvature="0" />
  </g>
</svg>
